<?xml version="1.0" encoding="utf-8"?>
<!-- Generator: Adobe Illustrator 24.3.0, SVG Export Plug-In . SVG Version: 6.00 Build 0)  -->
<svg version="1.1" id="Layer_1" xmlns="http://www.w3.org/2000/svg" xmlns:xlink="http://www.w3.org/1999/xlink" x="0px" y="0px"
	 viewBox="0 0 250 250" style="enable-background:new 0 0 250 250;" xml:space="preserve">
<style type="text/css">
	.st0{fill:#FFFFFF;}
</style>
<g>
	<path class="st0" d="M66.27,183.58c0-0.19,0-0.39,0.01-0.58c0.13,0.06,0.25,0.13,0.38,0.2C66.53,183.33,66.41,183.45,66.27,183.58z
		"/>
	<path class="st0" d="M66.77,154.29c-1.45,0-2.9-0.12-4.34,0.03c-1.81,0.18-2.98,1.29-3.1,3.13c-0.12,1.94,0.9,3.34,2.83,3.6
		c3.03,0.39,6.11,0.34,9.14,0.02c1.91-0.2,3.09-1.49,3.03-3.44c-0.07-1.93-1.3-3.11-3.21-3.31
		C69.67,154.17,68.21,154.3,66.77,154.29z"/>
	<path class="st0" d="M243.49,145.38c3.14,3.44,4.24,7.76,5.22,12.12c0.12,0.52-0.11,1.16,0.5,1.5c0,1.78,0,3.56,0,5.34
		c-1.15,1.43-2.42,2.65-4.47,1.93c-2.06-0.72-2.29-2.41-2.37-4.28c-0.2-4.77-1.81-9.11-4.2-13.19
		C240.29,148.2,241.06,145.49,243.49,145.38z"/>
	<path class="st0" d="M122.04,171.62c-1.14-2.71-1.28-5.6-1.3-8.45c-0.01-1.73-0.56-2.17-2.2-2.14c-4.16,0.07-8.33-0.02-12.49-0.05
		c0.13-1.55,1.52-2.16,2.4-3.13c0.91-1.02,1.93-1.91,1.97-3.42c3.22-0.06,6.45-0.19,9.67-0.14c1.36,0.02,1.95-0.43,2.42-1.7
		c3.87-10.66,11.29-17.64,22.11-21.02c0.88-0.27,1.6-0.63,2.2-1.36c2.96-3.58,6.64-6.12,11.15-7.3c1.34-0.35,1.6-0.88,1.1-2.2
		c-0.84-2.2-1.97-4.22-3.06-6.29c0.77-2.27,2.77-3.44,4.41-4.93c2.92,3.26,4.67,7.14,5.76,11.31c0.32,1.23,0.9,1.67,1.99,1.76
		c-0.57,1.64-1.94,2.64-3.08,3.83c-0.65,0.67-1.44,1.27-1.3,2.38c-5.26,0.47-9.63,2.54-12.66,7.04c-0.64,0.96-1.5,1.62-2.72,1.86
		c-12.65,2.54-22.39,14.38-20.57,28.85c0.05,0.39,0.01,0.81,0.01,1.21c-1.24-0.18-1.84,0.77-2.64,1.43
		C124.18,170.03,123.58,171.44,122.04,171.62z"/>
	<path class="st0" d="M93.38,83.3c0.49,1.04,1.14,1.71,2.38,1.02c0.07-0.04,0.16-0.04,0.24-0.04c5.12,0.11,8.66-2.55,12.17-6.03
		c4.53-4.48,10.16-7.39,16.62-8.27c1.84-0.25,3.7-0.34,5.51,0.25c-0.31,1.66-1.86,2.34-2.82,3.49c-0.72,0.85-1.75,1.49-1.54,2.83
		c-4.22,0.9-8.05,2.61-11.49,5.25c-3.69,2.83-3.71,2.81,0.34,4.83c-0.01,1.13-0.96,1.61-1.55,2.35c-0.8,0.98-2.12,1.55-2.35,2.97
		c-5.83-2.03-11.61-2.13-17.38,0.36c-2.43,1.05-4.21,0.04-5.01-2.51c-0.26-0.85-0.42-1.71-0.63-2.57c1.2-0.01,1.75-1.01,2.54-1.65
		C91.38,84.79,91.93,83.45,93.38,83.3z"/>
	<path class="st0" d="M33.22,90.37c-13.89,3.62-22.52,12.26-25.35,26.47c-0.06,0.31-0.21,0.6-0.32,0.91
		c-1.86,0.16-2.81,1.65-4.01,2.76c-0.8,0.74-1.41,1.78-2.74,1.6c-0.47-20.26,16.32-38.7,37.75-38.97c-0.34,2.21-2.47,2.97-3.64,4.52
		C34.27,88.5,33.1,89.03,33.22,90.37z"/>
	<path class="st0" d="M125.93,76.53c-0.21-1.34,0.83-1.97,1.54-2.83c0.96-1.15,2.51-1.82,2.82-3.49c3.18,1.16,4.41-0.58,5.84-3.2
		c6.08-11.09,20.71-16.03,31.53-10.91c0.2,1.35-0.85,1.98-1.58,2.8c-0.79,0.87-1.99,1.48-1.81,2.94c-3.56-0.95-7.14-1.27-10.73-0.23
		c-7.07,2.05-11.63,6.6-13.61,13.73c-0.93,3.36-2.51,4.14-5.75,2.8C131.54,77.06,128.74,76.78,125.93,76.53z"/>
	<path class="st0" d="M33.22,90.37c-0.12-1.34,1.05-1.86,1.69-2.72c1.17-1.54,3.29-2.32,3.64-4.52c2.3,0.13,3.38-1.14,4.48-3.07
		C49.55,68.57,64.02,63.1,75.94,67.4c0.16,1.25-0.86,1.8-1.5,2.59c-0.84,1.03-2.28,1.61-2.38,3.18c-4.96-0.53-9.82-0.39-14.38,1.99
		c-4.92,2.58-8.46,6.41-10.37,11.63c-0.89,2.43-2.38,3.46-4.95,3.17C39.32,89.65,36.26,89.93,33.22,90.37z"/>
	<path class="st0" d="M212.77,124.56c-4.57-4.91-10.29-7.29-16.93-7.65c0.4-1.66,1.78-2.59,2.85-3.74c0.69-0.75,1.65-1.33,1.49-2.57
		c2.83,0.22,5.54,1.01,8.03,2.31c1.85,0.97,2.3,0.24,2.68-1.4c1.33-5.62,0.89-11.13-0.89-16.57c1.46,0.17,2.07-1.06,2.93-1.84
		c0.83-0.75,1.49-1.75,2.82-1.57c3.56,7.95,3.65,16.06,0.93,24.23c-0.53,1.61-0.6,2.9,0.61,4.13
		C216.13,121.77,214.5,123.2,212.77,124.56z"/>
	<path class="st0" d="M209.9,189.16c3.46-0.31,6.92,0.14,10.38-0.42c6.85-1.13,12.4-4.33,16.68-9.78c0.35-0.44,0.69-0.9,1.03-1.35
		c1.29-1.63,2.85-2.07,4.67-0.95c1.67,1.03,2.06,3,0.85,4.86c-3.37,5.12-7.94,8.88-13.49,11.42c-4.45,2.04-9.15,3.05-14.08,2.96
		c-3.63-0.07-7.25-0.07-10.89-0.09c-0.17-1.25,0.84-1.82,1.49-2.62C207.64,191.82,209.41,191.02,209.9,189.16z"/>
	<path class="st0" d="M200.19,110.61c0.16,1.24-0.81,1.82-1.49,2.57c-1.07,1.16-2.46,2.08-2.85,3.74
		c-8.66,0.68-15.05,4.76-19.01,12.58c-1.08,2.13-2.76,2.53-5.15,1.33c-2.51-1.25-5.11-1.97-7.89-2.05c-0.14-1.11,0.65-1.7,1.3-2.38
		c1.14-1.18,2.51-2.19,3.08-3.83c0.55,0.07,1.18,0,1.65,0.23c1.81,0.89,2.81,0.33,4.07-1.28
		C180.56,112.97,189.42,109.4,200.19,110.61z"/>
	<path class="st0" d="M209.9,189.16c-0.49,1.86-2.26,2.66-3.37,4.01c-0.65,0.8-1.65,1.37-1.49,2.62c-10.04,0-20.06,0-30.1,0
		c-0.17-1.36,0.92-1.96,1.66-2.77c1.08-1.17,2.49-2.1,2.71-3.86C189.52,189.17,199.71,189.16,209.9,189.16z"/>
	<path class="st0" d="M110.42,154.44c-0.04,1.5-1.08,2.4-1.97,3.42c-0.88,0.98-2.27,1.59-2.4,3.13c-6.61,0.51-13.23,0.27-19.84,0.12
		c-1.9-0.04-3.16-1.42-3.13-3.37c0.03-2.05,1.29-3.43,3.36-3.43C94.43,154.3,102.42,154.04,110.42,154.44z"/>
	<path class="st0" d="M179.32,189.17c-0.22,1.76-1.63,2.69-2.71,3.86c-0.75,0.81-1.83,1.41-1.66,2.77
		c-8.09,0.06-16.18,0.31-24.26-0.13c-0.19-1.17,0.47-1.9,1.2-2.71c1.1-1.22,2.73-2.02,3.16-3.79
		C163.14,189.16,171.23,189.16,179.32,189.17z"/>
	<path class="st0" d="M72.06,73.18c0.11-1.57,1.54-2.16,2.38-3.18c0.65-0.79,1.66-1.34,1.5-2.59c8.23,2.64,14.13,7.85,17.45,15.88
		c-1.45,0.15-2,1.49-2.97,2.28c-0.79,0.64-1.34,1.64-2.54,1.65C84.91,79.95,79.6,75.3,72.06,73.18z"/>
	<path class="st0" d="M143.34,104.92c-5.13-1.45-10.22-1.73-15.43-0.09c-3.73,1.17-4.65,0.52-6.37-3.08
		c1.2-0.04,1.69-1.09,2.47-1.72c0.97-0.79,1.55-2.09,3-2.21c7.04-1.49,13.93-1.33,20.56,1.83
		C146.22,101.43,143.96,102.51,143.34,104.92z"/>
	<path class="st0" d="M181.3,68.63c2,1.4,4.35,0.64,6.53,1.01c4.8,0.8,9.3,2.23,13.38,4.9c-1.48,1.66-2.96,3.32-4.44,4.99
		c-5.33-2.49-10.89-3.69-16.81-3.12c-1.92,0.18-3.17-0.89-3.68-2.77C178.48,72.48,180.34,71,181.3,68.63z"/>
	<path class="st0" d="M196.76,79.51c1.48-1.66,2.96-3.32,4.44-4.99c6.86,3.94,11.76,9.57,14.56,17c-1.33-0.18-1.99,0.82-2.82,1.57
		c-0.87,0.79-1.46,2.01-2.93,1.84C207.38,88.25,202.86,83.22,196.76,79.51z"/>
	<path class="st0" d="M212.78,124.56c1.72-1.35,3.36-2.79,4.53-4.68c2.78,2.59,4.42,5.89,5.6,9.41c0.47,1.42,1.2,2.07,2.57,2.4
		c1.7,0.42,3.41,0.92,4.86,1.96c-1.04,1.99-3.6,2.87-3.92,5.39c-2.02-0.51-4.02-1.04-6.04-1.52c-1.63-0.38-2.79-1.3-3.09-2.97
		C216.61,130.83,214.86,127.63,212.78,124.56z"/>
	<path class="st0" d="M122.04,171.62c1.55-0.18,2.16-1.59,3.17-2.46c0.8-0.67,1.4-1.61,2.64-1.43c1.27,6.38,4.95,11.35,9.28,15.96
		c-0.53,2.27-2.95,3.03-3.92,4.95C127.49,184.28,123.69,178.66,122.04,171.62z"/>
	<path class="st0" d="M133.2,188.64c0.98-1.91,3.39-2.69,3.92-4.95c1.05,0.04,1.72,0.83,2.52,1.33c4.72,2.97,9.92,4.08,15.42,4.14
		c-0.43,1.77-2.07,2.57-3.16,3.79c-0.73,0.81-1.39,1.54-1.2,2.71C144.11,195.21,138.27,192.89,133.2,188.64z"/>
	<path class="st0" d="M181.3,68.62c-0.96,2.38-2.82,3.86-5.02,5c-2.29-5.67-6.27-9.61-12-11.77c-0.18-1.46,1.03-2.08,1.81-2.94
		c0.74-0.82,1.78-1.46,1.58-2.8C173.98,58.35,178.47,62.59,181.3,68.62z"/>
	<path class="st0" d="M0.79,122.12c1.33,0.18,1.94-0.88,2.74-1.6c1.21-1.11,2.16-2.6,4.01-2.76c-0.47,5.96,0.32,11.75,2.46,17.34
		c-1.45,1.73-2.71,3.68-4.98,4.52C1.94,134.19,0.7,128.31,0.79,122.12z"/>
	<path class="st0" d="M20.69,148.29c3.84,2.55,8.05,4.27,12.46,5.51c0.96,0.27,1.99,0.28,2.99,0.41c-0.03,1-0.85,1.46-1.42,2.08
		c-1.13,1.19-2.48,2.21-3.01,3.87c-5.77-0.99-10.89-3.39-15.45-7.04C17.12,150.94,19.02,149.72,20.69,148.29z"/>
	<path class="st0" d="M226.42,139.05c0.32-2.51,2.88-3.4,3.92-5.39c5.59,2.55,10.32,6.08,13.16,11.72
		c-2.44,0.11-3.21,2.82-5.33,3.44C235.13,144.5,231.16,141.3,226.42,139.05z"/>
	<path class="st0" d="M20.69,148.29c-1.66,1.43-3.57,2.65-4.42,4.83c-4.95-3.51-8.72-7.98-11.23-13.5c2.27-0.84,3.53-2.79,4.98-4.52
		C12.61,140.26,16.11,144.71,20.69,148.29z"/>
	<path class="st0" d="M31.71,160.16c0.53-1.65,1.88-2.67,3.01-3.87c0.58-0.61,1.39-1.08,1.42-2.08c3.55,0.02,7.09-0.01,10.64,0.07
		c2.22,0.05,3.7,1.41,3.79,3.29c0.1,1.85-1.32,3.52-3.51,3.56C41.93,161.26,36.76,161.57,31.71,160.16z"/>
	<path class="st0" d="M143.34,104.92c0.61-2.4,2.88-3.48,4.24-5.28c5.24,2.03,9.55,5.28,12.83,9.86c-1.63,1.5-3.64,2.66-4.41,4.93
		C152.65,110.1,148.47,106.87,143.34,104.92z"/>
	<path class="st0" d="M127.02,97.79c-1.45,0.12-2.04,1.43-3,2.21c-0.79,0.63-1.27,1.69-2.47,1.72c-2.48-4.44-6.1-7.64-10.66-9.8
		c0.22-1.43,1.55-1.99,2.35-2.97c0.59-0.74,1.55-1.22,1.55-2.35C120.33,88.74,124.12,92.79,127.02,97.79z"/>
	<path class="st0" d="M66.77,154.29c1.45,0,2.9-0.12,4.34,0.03c1.91,0.19,3.15,1.38,3.21,3.3c0.07,1.95-1.11,3.24-3.03,3.44
		c-3.03,0.31-6.11,0.36-9.14-0.02c-1.93-0.25-2.95-1.65-2.83-3.6c0.12-1.84,1.29-2.95,3.1-3.13
		C63.86,154.17,65.32,154.29,66.77,154.29z"/>
</g>
</svg>
