<?xml version="1.0" encoding="utf-8"?>
<!-- Generator: Adobe Illustrator 24.3.0, SVG Export Plug-In . SVG Version: 6.00 Build 0)  -->
<svg version="1.1" id="Layer_1" xmlns="http://www.w3.org/2000/svg" xmlns:xlink="http://www.w3.org/1999/xlink" x="0px" y="0px"
	 viewBox="0 0 250 250" style="enable-background:new 0 0 250 250;" xml:space="preserve">
<style type="text/css">
	.st0{fill:#FFFFFF;}
</style>
<path class="st0" d="M67.24,183.09c0.45,4.61,0.88,9.22,1.35,14.04c8.01-2.22,15.82-4.18,23.78-5.47
	c5.03-0.81,10.06-1.61,15.15-1.89c1.68-0.09,2.41-0.61,2.82-2.32c1.33-5.37,2.33-10.8,3.06-16.28c0.24-1.83-0.25-2.51-2.04-3.11
	c-17.03-5.75-27.63-17.44-31.56-35c-1.68-7.51-0.71-15.06,0.43-22.54c2.2-14.52,5.75-28.73,10.4-42.65c0.52-1.57,1.12-3,3.08-3.12
	c2.39-0.15,3.77,1.93,2.89,4.57c-2.84,8.59-5.39,17.25-7.28,26.09c-2.33,10.9-4.77,21.82-3.96,33.1
	c1.54,21.36,23.07,38.46,44.22,35.17c22.26-3.46,36.62-21.33,34.45-43.85c-2.61-27.07-9.83-52.9-22.8-76.95
	c-2.26-4.19-5.03-8.06-8.7-11.17c-5.49-4.64-10.41-4.6-15.74,0.22c-6,5.42-9.62,12.45-13.08,19.59c-0.5,1.03-0.91,2.11-1.52,3.06
	c-0.95,1.46-2.41,1.85-3.9,1.06c-1.47-0.76-2.19-2.09-1.45-3.76c3.96-8.95,8.34-17.68,15.7-24.42c8.16-7.48,17.05-7.19,25.06,0.5
	c7.05,6.78,11.56,15.22,15.29,24.07c9.36,22.14,15.49,45.17,17.41,69.13c1.7,21.25-11.6,40.35-31.9,46.71
	c-2.01,0.64-2.63,1.37-2.3,3.45c0.87,5.37,1.75,10.73,3.05,16.02c0.41,1.67,1.2,2.24,2.85,2.35c12.65,0.94,25.04,3.31,37.19,6.91
	c1.66,0.49,2.23,0.36,2.36-1.52c0.32-4.19,0.9-8.35,1.41-12.82c-6.11,2.11-12.04,2.67-18.07,1.14c-5.77-1.46-10.71-4.3-14.9-8.51
	c-1.49-1.5-2.1-3.18-0.44-4.83c1.67-1.66,3.39-1.04,4.83,0.48c10.47,10.98,28.69,9.98,37.93-2.94c1.95-2.72,3.81-2.42,6.25,0.68
	c5.85,7.44,13.57,10.85,22.92,9.55c10.01-1.4,16.86-7.15,20.14-16.72c4.83-14.11-4.13-28.97-19.04-31.92
	c-3.71-0.74-4.37-1.77-3.53-5.46c2.46-10.68-1.85-21.17-11.04-26.86c-9.03-5.59-20.24-4.75-28.74,2.17
	c-0.27,0.22-0.55,0.44-0.82,0.67c-1.5,1.24-3.1,1.43-4.46-0.04c-1.46-1.59-1.05-3.23,0.48-4.6c6.62-5.94,14.44-8.82,23.24-7.9
	c15.88,1.67,26.75,13.05,28.15,28.88c0.03,0.35,0.16,0.73,0.07,1.05c-1.38,4.91,0.96,6.74,5.4,8.67
	c13.13,5.72,19.9,20.06,16.98,34.25c-2.76,13.43-14.91,23.69-28.86,24.31c-4.06,0.19-8.01-0.59-12.13-2.02
	c0.76,6.98,1.84,13.66,2.09,20.37c0.18,4.74,2.26,7.01,6.38,8.86c6.15,2.76,11.85,6.5,17.48,10.22c1.78,1.18,3.06,2.52,1.8,4.75
	c-1,1.76-2.92,1.88-5.26,0.33c-20.23-13.37-42.25-22.46-65.98-27.32c-18.79-3.85-37.74-4.92-56.88-3.12
	c-31.45,2.95-60.42,12.93-86.86,30.22c-0.29,0.19-0.59,0.37-0.9,0.56c-1.81,1.19-3.58,1.26-4.79-0.7c-1.12-1.83-0.31-3.36,1.42-4.44
	c4.19-2.58,8.33-5.23,12.58-7.69c3.19-1.85,6.5-3.48,9.77-5.16c0.97-0.5,1.71-0.97,1.84-2.27c0.8-7.78,1.71-15.53,2.57-23.3
	c0.04-0.33-0.03-0.69-0.06-1.23c-7.12,2.52-14.15,2.63-21.19,0.08C9.2,178.05,0.95,166.36,1,153.54
	c0.05-13.2,8.36-24.93,20.79-29.11c1.94-0.65,2.68-1.22,2.5-3.54c-1.33-17.96,10.86-32.23,28.8-33.64
	c7.94-0.62,15.07,1.9,21.26,6.93c2.22,1.8,2.69,3.57,1.45,5.11c-1.3,1.62-2.95,1.52-5.28-0.29c-8.27-6.41-17.22-7.58-26.66-3.06
	c-10.26,4.91-15.61,16.52-13.01,27.59c0.97,4.12,0.46,4.94-3.62,5.81c-12.18,2.62-20.3,12.56-20.08,24.56
	c0.22,12.22,8.67,22.1,21.03,23.98c9.34,1.42,17.11-1.91,23.04-9.27c3.01-3.74,4.23-3.77,7.2,0.07
	c8.77,11.32,25.23,12.74,35.99,3.13c0.4-0.35,0.77-0.72,1.15-1.09c1.52-1.54,3.23-1.99,4.82-0.32c1.5,1.57,0.97,3.19-0.45,4.63
	c-4.71,4.79-10.38,7.67-16.97,8.91c-5.25,0.99-10.31,0.09-15.35-1.24c-0.12-0.06-0.25-0.13-0.37-0.2
	C67.25,182.71,67.25,182.9,67.24,183.09z M203.48,203.7c-0.77-6.89-1.7-13.94-2.27-21.01c-0.23-2.76-1.32-4.49-3.33-6.33
	c-2.17-1.99-3.58-2.45-5.4,0.06c-0.98,1.34-3.01,1.66-3.2,3.87c-0.49,5.77-1.21,11.5-1.9,17.25c-0.12,1.03,0.05,1.59,1.09,1.99
	c4.59,1.73,9.16,3.51,13.72,5.3C203.26,205.26,203.65,205,203.48,203.7z M46.44,205.03c5.2-1.96,10.08-3.87,15.02-5.62
	c1.47-0.52,1.23-1.43,1.1-2.48c-0.64-5.4-1.26-10.8-1.88-16.2c-0.14-1.16-4.42-6.27-5.51-6.52c-0.16-0.03-0.41-0.07-0.47,0.01
	c-1.72,2.03-5.09,2.86-5.49,5.7C48.06,188.16,47.35,196.45,46.44,205.03z M124.59,188.89c0-0.01,0-0.02,0-0.03
	c2.01,0,4.05-0.18,6.04,0.05c2.11,0.24,2.59-0.31,2.05-2.37c-1.18-4.49-2.08-9.05-2.44-13.67c-0.19-2.46-0.93-3.57-3.63-3.06
	c-1.69,0.31-3.5,0.08-5.24-0.05c-1.24-0.09-1.62,0.3-1.76,1.55c-0.6,5.39-1.44,10.76-2.87,15.99c-0.45,1.65,0.24,1.71,1.56,1.63
	C120.38,188.8,122.48,188.89,124.59,188.89z"/>
<path class="st0" d="M94.31,125.75c-0.19-2.82,0.84-4.49,2.92-4.43c2.53,0.06,3.13,1.74,3.25,3.96
	c0.69,12.63,9.92,21.85,22.72,22.76c1.46,0.11,2.87,0.27,3.68,1.68c1.34,2.3-0.38,4.72-3.42,4.6c-9.31-0.36-16.94-4.17-22.76-11.43
	C96.7,137.91,94.59,132.15,94.31,125.75z"/>
<path class="st0" d="M66.05,183.89c0-0.19,0-0.39,0.01-0.58c0.13,0.06,0.25,0.13,0.38,0.2C66.32,183.64,66.19,183.77,66.05,183.89z"
	/>
</svg>
